#!OML:ASF F:\VICON\USERDATA\INSTALL\rory3\rory3.ASF
:FULLY-SPECIFIED
:DEGREES
315
root 4.40814 19.4296 28.0415 83.5757 -38.4555 -83.3154
lowerback 16.5223 2.37384 20.5074
upperback -7.99456 9.08742 8.39659
thorax -16.5976 2.172 -4.1575
lowerneck -2.92025 10.7454 9.30802
upperneck 16.9404 12.7496 4.98992
head 5.94543 6.96584 0.881752
rclavicle -2.88735e-014 -1.20861e-013
rhumerus -15.6671 48.5733 -7.82971
rradius 51.1689
rwrist -74.9644
rhand 35.5804 0.666663
rfingers 7.12502
rthumb 58.6417 -14.4647
lclavicle -2.88735e-014 -1.20861e-013
lhumerus 8.05736 -9.77266 1.89914
lradius 23.9217
lwrist -33.4574
lhand 18.6916 25.4651
lfingers 7.12502
lthumb 43.3143 49.599
rfemur -54.3303 -28.5672 -36.156
rtibia 47.1308
rfoot -54.6974 -22.9617
rtoes 60.6644
lfemur -11.6078 -20.2279 31.6222
ltibia 21.2127
lfoot -78.4824 -12.4005
ltoes 56.4473
316
root 4.38027 19.4113 28.0265 83.9357 -38.0556 -83.8812
lowerback 16.6746 2.32173 20.6394
upperback -7.93564 9.09064 8.541
thorax -16.6241 2.16153 -4.06861
lowerneck -3.17116 10.9672 9.00875
upperneck 16.598 13.0156 5.40513
head 5.83298 7.10118 1.06931
rclavicle 2.96189e-014 9.22361e-014
rhumerus -13.9571 45.9399 -6.15353
rradius 48.6689
rwrist -72.3256
rhand 35.3785 0.877627
rfingers 7.12502
rthumb 58.4665 -14.4177
lclavicle 2.96189e-014 9.22361e-014
lhumerus 8.31936 -5.6308 1.77085
lradius 23.1691
lwrist -36.8271
lhand 15.3048 26.3368
lfingers 7.12502
lthumb 40.1384 51.521
rfemur -50.8951 -22.7426 -41.6848
rtibia 45.4527
rfoot -60.3397 -11.1604
rtoes 61.0003
lfemur -10.9368 -19.9679 31.7897
ltibia 20.9406
lfoot -78.1923 -14.7162
ltoes 56.5728
317
root 4.34964 19.3896 28.0004 84.3796 -37.8412 -84.5143
lowerback 16.8827 2.31871 20.4666
upperback -7.93823 9.12097 8.6225
thorax -16.787 2.17848 -3.92324
lowerneck -2.90765 11.2307 8.66474
upperneck 15.738 13.4222 5.88004
head 5.46212 7.28766 1.23397
rclavicle 3.52843e-014 4.13472e-014
rhumerus -12.5369 43.4226 -4.81313
rradius 46.3348
rwrist -70.1143
rhand 34.8778 0.579779
rfingers 7.12502
rthumb 58.0306 -15.1141
lclavicle 3.52843e-014 4.13472e-014
lhumerus 8.73738 -0.773968 1.83819
lradius 22.4039
lwrist -41.2205
lhand 12.0238 26.5626
lfingers 7.12502
lthumb 37.0432 52.6159
rfemur -48.2254 -16.6561 -46.8806
rtibia 44.0994
rfoot -64.3098 -1.89718
rtoes 61.0934
lfemur -10.156 -21.1488 32.0482
ltibia 20.6413
lfoot -79.7505 -13.3795
ltoes 56.5473
318
root 4.32577 19.3676 27.9592 84.8365 -37.7088 -84.9805
lowerback 17.0253 2.33697 20.2299
upperback -7.98467 9.14682 8.61145
thorax -16.9578 2.19532 -3.84629
lowerneck -2.4639 11.4963 7.87622
upperneck 14.5531 13.8587 6.76564
head 4.89384 7.47646 1.54744
rclavicle 6.80837e-015 -1.65389e-013
rhumerus -11.4647 40.9468 -3.80706
rradius 44.2874
rwrist -68.2049
rhand 33.7316 0.104495
rfingers 7.12502
rthumb 57.0269 -16.4591
lclavicle 6.80837e-015 -1.65389e-013
lhumerus 9.45709 1.77782 1.15273
lradius 21.8977
lwrist -43.0891
lhand 9.08554 26.7663
lfingers 7.12502
lthumb 34.2585 53.4923
rfemur -46.2044 -10.9015 -51.689
rtibia 43.1372
rfoot -67.9982 4.4142
rtoes 61.0335
lfemur -9.72617 -21.2393 32.1427
ltibia 20.4167
lfoot -80.6384 -14.163
ltoes 56.5652
319
root 4.30543 19.3551 27.9294 85.3671 -37.5491 -85.4776
lowerback 17.158 2.3936 20.1907
upperback -8.02998 9.25704 8.52868
thorax -17.0602 2.23047 -3.96107
lowerneck -2.8449 11.542 7.2103
upperneck 13.9365 13.8778 7.65868
head 4.6472 7.49345 1.89519
rclavicle -5.40694e-014 3.49861e-014
rhumerus -10.6216 38.0288 -3.08355
rradius 42.25
rwrist -65.8419
rhand 32.7187 -0.553114
rfingers 7.12502
rthumb 56.1332 -17.8391
lclavicle -5.40694e-014 3.49861e-014
lhumerus 10.1756 2.34533 -0.0438861
lradius 21.7215
lwrist -43.4081
lhand 6.92739 27.2978
lfingers 7.12502
lthumb 32.2066 54.4621
rfemur -44.8309 -5.40621 -55.9263
rtibia 42.5855
rfoot -71.6344 8.18276
rtoes 60.9764
lfemur -9.23251 -22.0763 32.2367
ltibia 20.1218
lfoot -81.8999 -14.1584
ltoes 56.5582
320
root 4.28301 19.349 27.9028 85.7905 -36.7018 -86.0549
lowerback 17.4321 2.3284 20.8124
upperback -8.06623 9.41026 8.6576
thorax -17.1725 2.21083 -4.16472
lowerneck -4.36407 11.585 9.4474
upperneck 14.9432 13.7333 5.90763
head 5.51758 7.48576 1.22339
rclavicle 2.90226e-014 6.99722e-014
rhumerus -9.61498 35.4025 -2.17579
rradius 40.4253
rwrist -63.6074
rhand 31.8342 -1.44162
rfingers 7.12502
rthumb 55.348 -19.3256
lclavicle 2.90226e-014 6.99722e-014
lhumerus 10.6009 2.59519 -1.30229
lradius 21.6394
lwrist -44.157
lhand 5.54769 27.7972
lfingers 7.12502
lthumb 30.8922 55.2191
rfemur -43.763 0.42821 -59.0295
rtibia 42.1607
rfoot -75.4435 12.4765
rtoes 60.991
lfemur -8.52593 -22.8898 33.1662
ltibia 19.7383
lfoot -82.618 -13.395
ltoes 56.3621
321
root 4.25942 19.3456 27.8676 86.1861 -35.087 -86.7428
lowerback 17.8349 2.21878 22.1262
upperback -8.11297 9.72604 8.98344
thorax -17.2751 2.18445 -4.50569
lowerneck -4.3834 11.7392 9.1435
upperneck 14.3516 13.9861 6.13159
head 5.29603 7.59316 1.32335
rclavicle 2.97183e-014 2.22639e-014
rhumerus -8.68391 32.3065 -1.32576
rradius 38.7271
rwrist -61.0072
rhand 31.4243 -2.37339
rfingers 7.12502
rthumb 54.9827 -20.5246
lclavicle 2.97183e-014 2.22639e-014
lhumerus 11.066 2.58445 -2.56458
lradius 21.6528
lwrist -44.8458
lhand 4.63673 28.2157
lfingers 7.12502
lthumb 30.0234 55.7988
rfemur -43.1117 6.2702 -60.9801
rtibia 41.8735
rfoot -79.7072 17.2981
rtoes 60.8984
lfemur -7.77332 -23.0704 35.0345
ltibia 19.3221
lfoot -82.7271 -13.0963
ltoes 56.2797
322
root 4.23525 19.3369 27.8187 86.6711 -33.9537 -87.2823
lowerback 18.0753 2.17537 22.8467
upperback -8.16336 9.94256 9.213
thorax -17.3738 2.18242 -4.64156
lowerneck -4.26454 11.9507 7.78431
upperneck 13.2833 14.3206 7.54991
head 4.72977 7.74284 1.88057
rclavicle -2.09718e-014 -5.725e-014
rhumerus -7.82806 28.9613 -0.684949
rradius 37.2249
rwrist -58.0169
rhand 30.8236 -3.02494
rfingers 7.12502
rthumb 54.4459 -21.557
lclavicle -2.09718e-014 -5.725e-014
lhumerus 11.5278 1.00239 -4.38358
lradius 21.7932
lwrist -43.752
lhand 4.21437 29.0153
lfingers 7.12502
lthumb 29.6203 56.6707
rfemur -42.4253 9.21527 -62.1169
rtibia 41.5567
rfoot -82.5069 25.8331
rtoes 60.8688
lfemur -7.17261 -23.5079 36.3856
ltibia 18.8645
lfoot -83.2494 -14.0101
ltoes 56.254
323
root 4.21486 19.3307 27.7685 87.2071 -33.8901 -87.6863
lowerback 18.1686 2.20044 22.4693
upperback -8.22575 9.92944 9.13671
thorax -17.554 2.19311 -4.5687
lowerneck -4.27216 12.1743 6.7523
upperneck 12.4278 14.6372 8.89457
head 4.27782 7.89832 2.38008
rclavicle 4.6615e-014 4.77083e-014
rhumerus -7.20068 26.306 -0.36546
rradius 35.8518
rwrist -55.6097
rhand 29.7958 -3.12388
rfingers 7.12502
rthumb 53.5232 -22.2792
lclavicle 4.6615e-014 4.77083e-014
lhumerus 12.0145 -1.38324 -6.6898
lradius 22.0032
lwrist -41.4128
lhand 4.16128 30.1952
lfingers 7.12502
lthumb 29.5697 57.8596
rfemur -3.80423 -167.887 -64.5695
rtibia 41.4731
rfoot 63.2302 -7.46177
rtoes 60.8894
lfemur -6.61355 -23.9843 36.473
ltibia 18.2988
lfoot -84.1696 -15.6589
ltoes 56.2557
324
root 4.19298 19.3234 27.713 87.5853 -33.8554 -88.0583
lowerback 18.3412 2.15945 22.0938
upperback -8.28151 9.84954 9.0445
thorax -17.7843 2.16825 -4.50268
lowerneck -4.43586 12.3405 6.78511
upperneck 12.1168 14.8696 8.93712
head 4.20411 8.01045 2.39624
rclavicle 4.96962e-015 1.59028e-014
rhumerus -6.55592 24.2145 -0.119843
rradius 34.3912
rwrist -53.5986
rhand 28.9268 -2.15203
rfingers 7.12502
rthumb 52.7396 -21.8079
lclavicle 4.96962e-015 1.59028e-014
lhumerus 12.644 -2.16524 -8.5061
lradius 21.8997
lwrist -40.2614
lhand 4.50974 31.0005
lfingers 7.12502
lthumb 29.9022 58.6055
rfemur -3.92356 -164.018 -67.3555
rtibia 41.3451
rfoot 59.7228 -9.34141
rtoes 60.9395
lfemur -6.1172 -24.0737 36.5485
ltibia 17.8289
lfoot -85.0591 -16.1151
ltoes 56.3857
325
root 4.17011 19.3204 27.6655 87.924 -33.5703 -88.3982
lowerback 18.497 2.16584 21.8022
upperback -8.3277 9.86921 9.21323
thorax -18.0185 2.18876 -4.20251
lowerneck -4.3546 12.534 5.4132
upperneck 10.8841 15.2584 10.1057
head 3.96287 8.1427 3.1747
rclavicle 3.97569e-016 -1.43125e-013
rhumerus -5.76019 22.5773 0.50971
rradius 32.9934
rwrist -51.9373
rhand 28.216 0.265964
rfingers 7.12502
rthumb 52.0961 -19.7824
lclavicle 3.97569e-016 -1.43125e-013
lhumerus 13.274 -1.7191 -9.48167
lradius 21.5675
lwrist -40.4137
lhand 5.66751 30.9879
lfingers 7.12502
lthumb 31.0064 58.3882
rfemur -3.81329 -157.822 -70.5534
rtibia 41.315
rfoot 54.8245 -12.1383
rtoes 60.879
lfemur -5.72162 -24.3554 36.9121
ltibia 17.5675
lfoot -85.894 -16.0797
ltoes 56.4342
